<?xml version="1.0"?><svg version="1.2" baseProfile="tiny-ps" viewBox="0 0 300 300" xmlns="http://www.w3.org/2000/svg" xmlns:xlink="http://www.w3.org/1999/xlink"><title>asg</title><g><g fill="#d82c34" transform="matrix(.1 0 0 -.1 0 300)"><path d="m1380 2224-45-14-47-35-47-35-31-52-30-53-11-55-12-55 11-57c14-73 35-117 83-172l39-44 52-26c29-14 59-26 67-26h16l23 34c13 18 28 50 33 70l10 37-12 37-11 37-46 59c-45 58-71 113-72 152 0 11 7 44 15 73l16 52 43 44 43 45-21-1c-12 0-41-7-66-15zm162-49-42-47-6-34-6-34 6-27c4-16 29-60 55-98l49-71 11-41 11-42-10-47c-11-49-39-96-74-127l-21-18 35 6c19 4 58 18 86 31l52 24 42 46 42 45 20 46 20 46 5 58 6 58-12 48-12 48-34 52-34 51-45 31c-25 17-58 34-74 37l-29 6-41-47zm527-21-47-14-40-41-41-40-22-57-23-57v-102l-1-101 24-26 25-26 35-10 36-10h352l17 19 18 19 34 126c19 70 34 131 34 136v10h-237l-20-52-20-53 43-3 44-3v-12c0-14-28-58-44-69-6-4-41-8-78-8h-68l-20 20-20 20v33c0 18 7 57 16 86l15 52 29 32 28 32 175 3 174 3 12 38c6 21 11 46 11 55v16l-197-1h-198l-46-15zM724 1924c-115-130-210-241-212-245l-4-9h329l15 55 15 55H738l31 38c17 20 48 57 69 81l38 44 58-137 58-136h160l-5 13c-40 102-203 477-208 477-4 0-101-106-215-236zm-524-434v-21l18 3 17 3v30l-17 3-18 3v-21zm54 9-6-11 11-11 11-11 11 11 11 11-6 11c-4 6-11 11-16 11s-12-5-16-11zm956-84v-95h-50v26c0 28-16 65-34 76-17 12-50 9-70-5l-19-14-6-39-6-39-28-3-27-3v101h-40v-100h-69l5 30 6 30-16 25-16 25h-67l-18-20-17-19 4-36 4-35h-65l-7 35-6 35-25 20-26 20h-57v-30h49l15-22c9-12 16-30 16-40v-18H540v-29h710v219h-40v-95zm-382-49 4-29-13-7c-16-10-36-3-43 16l-6 15 11 20 10 20 17-3 17-3 3-29zm287-6v-35h-50l-3 23-4 23 13 15 12 15 16-3 16-3v-35zm175 40v-110h40v220h-40v-110zm370 15v-95h-48l-7 38c-4 20-14 45-22 55l-16 17h-56l-20-26-21-27v-50l-25-23-25-23v-51h40v24c0 14 4 28 10 31 5 3 143 6 305 6l295-1v220h-40v-190h-59l-3 47-3 48-17 3-18 3v-101h-70v56l-16 22-15 22h-76l-27-21-26-20v131h-40v-95zm-94-40c3-14 4-32 0-40l-5-15h-51v33c0 38 6 47 31 47h19l6-25zm252-22 3-33h-121v10c0 6 11 22 25 36l25 25 33-3 32-3 3-32zm292 47v-110h40v220h-40v-110zm167 104c-4-4-7-14-7-21v-14l18 3 17 3v14c0 16-18 25-28 15zm46-10c-7-19 2-28 22-21 19 8 19 23 0 31l-16 6-6-16zm197-94v-110h40v220h-40v-110zm-1758 83 3-18h30v30l-18 3-19 4 4-19zm48 3c0-8 5-18 11-22l11-7 8 14c11 16 4 29-16 29h-14v-14zm97-2c-9-10 2-24 19-24h14v30h-13c-8 0-17-3-20-6zm45-6c3-7 12-14 21-16l17-3v31h-42l4-12zm828-8v-20h30v40h-30v-20zm152 3 3-18h30v30l-18 3-19 4 4-19zm-1707-40c-11-3-28-12-37-21l-18-15v-67l24-15 24-16 26 7 26 6v-21h100l100 1 15 15c8 8 18 26 21 40l7 25-20 26-20 27-27 3-27 3-25-15-24-16-6-40-7-40h-56l-3 58-3 57-25 2c-14 0-34-1-45-4zm33-60-3-38h-40l-3 29-4 29 14 8c7 5 19 9 26 9h13l-3-37zm206 11c3-9 6-24 6-34v-19l-18-10-18-9-17 9-17 10v22c0 27 17 47 41 47h17l6-16zm1820 42-31-14-7-17c-3-9-6-25-6-36v-19l21-21 21-21 29 6 28 5 6-9 6-10h129v130h-40v-100h-69l-3 58-3 57-25 2c-14 2-39-4-56-11zm46-50v-35l-10-6-11-7-14 12c-8 7-15 21-15 31v18l18 10c27 16 32 13 32-23zm282 31-22-23v-54l20-20 20-20h50v-29l-22-8c-13-4-29-8-37-8s-16-6-19-13l-4-12h69l27 21c14 11 26 27 26 35v14h100v131l-17-3-18-3-3-48-3-47h-59v77l-18 16-19 17h-50l-21-23zm66-19 12-12v-57l-27 3-28 3-3 23c-7 46 18 68 46 40zm-241-134c-9-10 2-24 19-24h14v30h-13c-8 0-17-3-20-6zm347-5-6-11 11-11 11-11 11 11 11 11-6 11c-4 6-11 11-16 11s-12-5-16-11zM217 1109c-14-30-27-65-31-79l-7-25 15 19c9 11 16 23 16 28v8h57l13-27 13-28 4 13 5 13-23 57c-12 31-26 61-30 66l-9 10-23-55zm43-31c0-4-9-8-21-8h-21l6 16c3 9 6 21 6 27l1 12 14-19c8-11 15-23 15-28zm70 7v-75h31c32 0 69 15 81 34 10 14 10 68 0 82-12 19-49 34-81 34h-31v-75zm92 30 12-26-10-27-9-27-33-3-32-3v111h60l12-25zm38 38c0-4 12-38 27-76l26-68 12 13c17 19 59 128 52 135-4 3-11-5-16-18s-15-40-23-58l-14-35-23 57c-13 31-27 57-32 57s-9-3-9-7zm140-39c-12-27-23-62-26-79l-4-30 12 28 12 27h53l11-25c6-14 16-25 22-25 5 0 10 1 10 3 0 10-53 133-61 141l-8 9-21-49zm39-36c1-5-8-8-19-8-23 0-24 4-8 33l11 22 8-20c4-11 8-23 8-27zm71 6v-75l10 6 10 6 1 47v47l22-29c12-16 32-41 44-55l22-26-1 80-1 80-6-55-6-55-38 53c-21 28-43 52-48 52h-9v-76zm159 57-23-18v-76l23-18 23-19h56l12 15 12 14-36-6-36-6-15 13-15 12v68l25 16 25 16 25-16c26-17 34-9 13 12l-12 12h-54l-23-19zm121-56v-75h89l6 10 6 10h-71v50h51l-6 10c-3 6-15 10-26 10h-19v40h60v20h-90v-75zm120-1v-77l42 6 43 6 17 21 18 22v49l-25 24-24 25h-71v-76zm78 44 12-12v-62l-12-12c-7-7-22-12-35-12h-23v110h23c13 0 28-5 35-12zm135 26-13-6v-54l35-17 35-17v-30h-56l-12 12-12 12v-10c0-32 52-44 85-21l18 14-6 25-7 26-30 10-30 11v15c0 8 4 18 10 21l10 6 21-12 21-11-4 14-5 13-24 2c-13 1-30-1-36-3zm101-38 26-45v-61h20v60l26 41c14 23 23 43 20 47-7 6-6 7-32-36l-20-33-20 36-19 35h-27l26-44zm118 32c-6-6-12-20-12-30v-19l35-20 35-21v-28h-56l-12 12-12 12v-10c0-18 24-34 50-34 32 0 50 17 50 48v23l-35 15-35 14v14c0 19 21 25 44 14l18-10-4 14-5 13-24 3-24 3-13-13zm88 2v-10h50v-130h20v130h50v20h-120v-10zm140-65v-75h90v20h-70v50h61l-6 10c-3 6-17 10-31 10h-24v40h70v20h-90v-75zm122-2 1-78 6 59 6 60 24-52c14-29 28-52 31-52 4 0 18 24 31 53l24 52 3-57 3-58h19v150h-26l-26-52-26-53-22 53-23 52h-27l2-77zm189 58-11-20 5-14c3-7 21-21 40-30 39-19 44-32 17-46l-19-10-21 15-22 15v-31l26-6 25-7 25 12 24 11v40l-41 26-41 26 15 15 15 15 22-12 22-12-4 14-5 13-31 3-31 3-10-20zm191-4-22-23v-63l22-21 22-20h27c15 0 34 3 43 6l16 6v58l-27-1-28-1 18-5 18-5-3-16-3-17-33-3-32-3-10 26-10 26 6 25 6 25 20 10 19 10 25-16 24-15v14c0 16-21 26-54 26h-23l-21-23zm189 1c-5-13-16-40-25-62-9-21-16-46-16-55l1-16 15 28 15 27h49l10-25c8-21 30-36 30-20s-56 145-62 145c-5 0-12-10-17-22zm29-55v-13h-30v18c0 10 3 22 7 25l7 7 8-12c4-7 8-19 8-25zm60 67v-10h50v-132l13 4 12 5 3 61 3 62h49v20h-130v-10zm159 6c-2-2-3-36-1-75l4-71h88v20h-70v50h50v20h-50v40h70v20h-43c-24 0-46-2-48-4z"/></g><g fill="#df2325" transform="matrix(.1 0 0 -.1 0 300)"><path d="m1380 2224-45-14-47-35-47-35-31-52-30-53-11-55-12-55 11-57c14-73 35-117 83-172l39-44 52-26c29-14 59-26 67-26h16l23 34c13 18 28 50 33 70l10 37-12 37-11 37-46 59c-45 58-71 113-72 152 0 11 7 44 15 73l16 52 43 44 43 45-21-1c-12 0-41-7-66-15zm162-49-42-47-6-34-6-34 6-27c4-16 29-60 55-98l49-71 11-41 11-42-10-47c-11-49-39-96-74-127l-21-18 35 6c19 4 58 18 86 31l52 24 42 46 42 45 20 46 20 46 5 58 6 58-12 48-12 48-34 52-34 51-45 31c-25 17-58 34-74 37l-29 6-41-47zm666-12c56-2 148-2 205 0l102 3h-410l103-3zm-1304-35-29-33 31 28 32 29 11-19c11-20 14-14 5 11-9 23-16 20-50-16zm1174 25c7-3 16-2 19 1 4 3-2 6-13 5l-19-1 13-5zm-54-19-19-15 25 12c31 14 36 19 24 19-6 0-19-7-30-16zm477 0 1-19 5 13c3 7 2 16-1 19-3 4-6-2-5-13zm-1540-29c0-5 6-21 14-35s14-20 14-15c0 6-6 21-14 35s-14 21-14 15zm1003-22c-30-41-39-62-15-33 23 27 44 60 38 60-2 0-12-12-23-27zm-1129-35-40-43 43 40c39 36 47 45 39 45-2 0-21-19-42-42zm1483 22c-91-3-169-7-171-10-3-3 72-4 166-2 153 3 190 6 176 15-2 1-79 0-171-3zm-222-51c-14-17-26-36-26-42l1-12 11 20c6 11 20 30 31 43 11 12 18 22 15 22-4 0-18-14-32-31zm-1096-4c0-5 5-17 10-25l10-15v10c0 6-5 17-10 25l-10 15v-10zm-245-57-40-43 43 40c39 36 47 45 39 45-2 0-21-19-42-42zm1471 6c-9-24-7-31 5-11l10 17h218l4-17 5-18 1 23 1 22h-238l-6-16zm-1205 1c0-5 6-21 14-35s14-20 14-15c0 6-6 21-14 35s-14 21-14 15zm880-21 1-19 5 13c3 7 2 16-1 19-3 4-6-2-5-13zm155 1c-3-9-6-24-5-33l1-17 9 29c9 32 6 48-5 21zm-1252-74c-38-45-70-86-72-91l-4-10 74 2 73 2-67 5-68 6 67 78 67 78 13-23c7-13 12-18 13-12 0 5-6 18-13 28l-13 18-70-81zm1088 14v-30l5 18c2 9 2 23 0 30l-5 12v-30zm-1218-17-29-33 33 29c17 17 32 31 32 33 0 8-8 1-36-29zm1767 16 1-19 5 13c3 7 2 16-1 19-3 4-6-2-5-13zm-399-29v-30l5 18c2 9 2 23 0 30l-5 12v-30zm188 18 45-4 8-12 9-12-5 15-4 15-49 1-49 1 45-4zm201-29 1-19 5 13c3 7 2 16-1 19-3 4-6-2-5-13zm-170-27-13-22 18 17c10 10 16 20 13 22-3 3-11-5-18-17zm-1685-61c-36-41-66-77-66-80s74-6 164-6h164l6 26c4 15 5 28 3 31-3 2-7-8-11-22l-6-25H518l67 75c37 41 65 75 62 75-2 0-34-33-71-74zm504 69c0-5 5-17 10-25l10-15v10c0 6-5 17-10 25l-10 15v-10zm-150-10c0-5 5-17 10-25l10-15v10c0 6-5 17-10 25l-10 15v-10zm1120-4c0-10 29-36 34-30 1 2-6 12-16 22-10 9-18 13-18 8zm371-7 1-19 5 13c3 7 2 16-1 19-3 4-6-2-5-13zm-530-30 1-19 5 13c3 7 2 16-1 19-3 4-6-2-5-13zm237-1c17-2 47-2 65 0l32 4h-130l33-4zm-1018-18c0-5 5-17 10-25l10-15v10c0 6-5 17-10 25l-10 15v-10zm-150-10c0-5 5-17 10-25l10-15v10c0 6-5 17-10 25l-10 15v-10zm940-2c0-14 57-63 73-63 7 0-2 9-20 19-17 11-36 28-42 38l-10 18-1-12zm501-9 1-19 5 13c3 7 2 16-1 19-3 4-6-2-5-13zm-21-39-12-15-187-3-186-2 186-3 186-2 18 20c10 11 16 20 13 20s-11-7-18-15zm-1315-15-80-6 83-2 82-2v10c0 6-1 9-2 8-2-1-39-5-83-8zm-865-190v-21l18 3 17 3v30l-17 3-18 3v-21zm54 9-6-11 11-11 11-11 11 11 11 11-6 11c-4 6-11 11-16 11s-12-5-16-11zm956-84v-95h-50v26c0 28-16 65-34 76-17 12-50 9-70-5l-19-14-6-39-6-39-28-3-27-3v101h-40v-100h-69l5 30 6 30-16 25-16 25h-67l-18-20-17-19 4-36 4-35h-65l-7 35-6 35-25 20-26 20h-57v-30h49l15-22c9-12 16-30 16-40v-18H540v-29h710v219h-40v-95zm-382-49 4-29-13-7c-16-10-36-3-43 16l-6 15 11 20 10 20 17-3 17-3 3-29zm287-6v-35h-50l-3 23-4 23 13 15 12 15 16-3 16-3v-35zm175 40v-110h40v220h-40v-110zm370 15v-95h-48l-7 38c-4 20-14 45-22 55l-16 17h-56l-20-26-21-27v-50l-25-23-25-23v-51h40v24c0 14 4 28 10 31 5 3 143 6 305 6l295-1v220h-40v-190h-59l-3 47-3 48-17 3-18 3v-101h-70v56l-16 22-15 22h-76l-27-21-26-20v131h-40v-95zm-94-40c3-14 4-32 0-40l-5-15h-51v33c0 38 6 47 31 47h19l6-25zm252-22 3-33h-121v10c0 6 11 22 25 36l25 25 33-3 32-3 3-32zm292 47v-110h40v220h-40v-110zm167 104c-4-4-7-14-7-21v-14l18 3 17 3v14c0 16-18 25-28 15zm46-10c-7-19 2-28 22-21 19 8 19 23 0 31l-16 6-6-16zm197-94v-110h40v220h-40v-110zm-1758 83 3-18h30v30l-18 3-19 4 4-19zm48 3c0-8 5-18 11-22l11-7 8 14c11 16 4 29-16 29h-14v-14zm97-2c-9-10 2-24 19-24h14v30h-13c-8 0-17-3-20-6zm45-6c3-7 12-14 21-16l17-3v31h-42l4-12zm828-8v-20h30v40h-30v-20zm152 3 3-18h30v30l-18 3-19 4 4-19zm-1707-40c-11-3-28-12-37-21l-18-15v-67l24-15 24-16 26 7 26 6v-21h100l100 1 15 15c8 8 18 26 21 40l7 25-20 26-20 27-27 3-27 3-25-15-24-16-6-40-7-40h-56l-3 58-3 57-25 2c-14 0-34-1-45-4zm33-60-3-38h-40l-3 29-4 29 14 8c7 5 19 9 26 9h13l-3-37zm206 11c3-9 6-24 6-34v-19l-18-10-18-9-17 9-17 10v22c0 27 17 47 41 47h17l6-16zm1820 42-31-14-7-17c-3-9-6-25-6-36v-19l21-21 21-21 29 6 28 5 6-9 6-10h129v130h-40v-100h-69l-3 58-3 57-25 2c-14 2-39-4-56-11zm46-50v-35l-10-6-11-7-14 12c-8 7-15 21-15 31v18l18 10c27 16 32 13 32-23zm282 31-22-23v-54l20-20 20-20h50v-29l-22-8c-13-4-29-8-37-8s-16-6-19-13l-4-12h69l27 21c14 11 26 27 26 35v14h100v131l-17-3-18-3-3-48-3-47h-59v77l-18 16-19 17h-50l-21-23zm66-19 12-12v-57l-27 3-28 3-3 23c-7 46 18 68 46 40zm-241-134c-9-10 2-24 19-24h14v30h-13c-8 0-17-3-20-6zm347-5-6-11 11-11 11-11 11 11 11 11-6 11c-4 6-11 11-16 11s-12-5-16-11zM217 1109c-14-30-27-65-31-79l-7-25 15 19c9 11 16 23 16 28v8h57l13-27 13-28 4 13 5 13-23 57c-12 31-26 61-30 66l-9 10-23-55zm43-31c0-4-9-8-21-8h-21l6 16c3 9 6 21 6 27l1 12 14-19c8-11 15-23 15-28zm70 7v-75h31c32 0 69 15 81 34 10 14 10 68 0 82-12 19-49 34-81 34h-31v-75zm92 30 12-26-10-27-9-27-33-3-32-3v111h60l12-25zm38 38c0-4 12-38 27-76l26-68 12 13c17 19 59 128 52 135-4 3-11-5-16-18s-15-40-23-58l-14-35-23 57c-13 31-27 57-32 57s-9-3-9-7zm140-39c-12-27-23-62-26-79l-4-30 12 28 12 27h53l11-25c6-14 16-25 22-25 5 0 10 1 10 3 0 10-53 133-61 141l-8 9-21-49zm39-36c1-5-8-8-19-8-23 0-24 4-8 33l11 22 8-20c4-11 8-23 8-27zm71 6v-75l10 6 10 6 1 47v47l22-29c12-16 32-41 44-55l22-26-1 80-1 80-6-55-6-55-38 53c-21 28-43 52-48 52h-9v-76zm159 57-23-18v-76l23-18 23-19h56l12 15 12 14-36-6-36-6-15 13-15 12v68l25 16 25 16 25-16c26-17 34-9 13 12l-12 12h-54l-23-19zm121-56v-75h89l6 10 6 10h-71v50h51l-6 10c-3 6-15 10-26 10h-19v40h60v20h-90v-75zm120-1v-77l42 6 43 6 17 21 18 22v49l-25 24-24 25h-71v-76zm78 44 12-12v-62l-12-12c-7-7-22-12-35-12h-23v110h23c13 0 28-5 35-12zm135 26-13-6v-54l35-17 35-17v-30h-56l-12 12-12 12v-10c0-32 52-44 85-21l18 14-6 25-7 26-30 10-30 11v15c0 8 4 18 10 21l10 6 21-12 21-11-4 14-5 13-24 2c-13 1-30-1-36-3zm101-38 26-45v-61h20v60l26 41c14 23 23 43 20 47-7 6-6 7-32-36l-20-33-20 36-19 35h-27l26-44zm118 32c-6-6-12-20-12-30v-19l35-20 35-21v-28h-56l-12 12-12 12v-10c0-18 24-34 50-34 32 0 50 17 50 48v23l-35 15-35 14v14c0 19 21 25 44 14l18-10-4 14-5 13-24 3-24 3-13-13zm88 2v-10h50v-130h20v130h50v20h-120v-10zm140-65v-75h90v20h-70v50h61l-6 10c-3 6-17 10-31 10h-24v40h70v20h-90v-75zm122-2 1-78 6 59 6 60 24-52c14-29 28-52 31-52 4 0 18 24 31 53l24 52 3-57 3-58h19v150h-26l-26-52-26-53-22 53-23 52h-27l2-77zm189 58-11-20 5-14c3-7 21-21 40-30 39-19 44-32 17-46l-19-10-21 15-22 15v-31l26-6 25-7 25 12 24 11v40l-41 26-41 26 15 15 15 15 22-12 22-12-4 14-5 13-31 3-31 3-10-20zm191-4-22-23v-63l22-21 22-20h27c15 0 34 3 43 6l16 6v58l-27-1-28-1 18-5 18-5-3-16-3-17-33-3-32-3-10 26-10 26 6 25 6 25 20 10 19 10 25-16 24-15v14c0 16-21 26-54 26h-23l-21-23zm189 1c-5-13-16-40-25-62-9-21-16-46-16-55l1-16 15 28 15 27h49l10-25c8-21 30-36 30-20s-56 145-62 145c-5 0-12-10-17-22zm29-55v-13h-30v18c0 10 3 22 7 25l7 7 8-12c4-7 8-19 8-25zm60 67v-10h50v-132l13 4 12 5 3 61 3 62h49v20h-130v-10zm159 6c-2-2-3-36-1-75l4-71h88v20h-70v50h50v20h-50v40h70v20h-43c-24 0-46-2-48-4z"/></g><g fill="#054b80" transform="matrix(.1 0 0 -.1 0 300)"><path d="m1380 2224-45-14-47-35-47-35-31-52-30-53-11-55-12-55 11-57c14-73 35-117 83-172l39-44 52-26c29-14 59-26 67-26h16l23 34c13 18 28 50 33 70l10 37-12 37-11 37-46 59c-45 58-71 113-72 152 0 11 7 44 15 73l16 52 43 44 43 45-21-1c-12 0-41-7-66-15zm162-49-42-47-6-34-6-34 6-27c4-16 29-60 55-98l49-71 11-41 11-42-10-47c-11-49-39-96-74-127l-21-18 35 6c19 4 58 18 86 31l52 24 42 46 42 45 20 46 20 46 5 58 6 58-12 48-12 48-34 52-34 51-45 31c-25 17-58 34-74 37l-29 6-41-47zM200 1490v-21l18 3 17 3v30l-17 3-18 3v-21zm54 9-6-11 11-11 11-11 11 11 11 11-6 11c-4 6-11 11-16 11s-12-5-16-11zm956-84v-95h-50v26c0 28-16 65-34 76-17 12-50 9-70-5l-19-14-6-39-6-39-28-3-27-3v101h-40v-100h-69l5 30 6 30-16 25-16 25h-67l-18-20-17-19 4-36 4-35h-65l-7 35-6 35-25 20-26 20h-57v-30h49l15-22c9-12 16-30 16-40v-18H540v-29h710v219h-40v-95zm-382-49 4-29-13-7c-16-10-36-3-43 16l-6 15 11 20 10 20 17-3 17-3 3-29zm287-6v-35h-50l-3 23-4 23 13 15 12 15 16-3 16-3v-35zm175 40v-110h40v220h-40v-110zm370 15v-95h-48l-7 38c-4 20-14 45-22 55l-16 17h-56l-20-26-21-27v-50l-25-23-25-23v-51h40v24c0 14 4 28 10 31 5 3 143 6 305 6l295-1v220h-40v-190h-59l-3 47-3 48-17 3-18 3v-101h-70v56l-16 22-15 22h-76l-27-21-26-20v131h-40v-95zm-94-40c3-14 4-32 0-40l-5-15h-51v33c0 38 6 47 31 47h19l6-25zm252-22 3-33h-121v10c0 6 11 22 25 36l25 25 33-3 32-3 3-32zm292 47v-110h40v220h-40v-110zm167 104c-4-4-7-14-7-21v-14l18 3 17 3v14c0 16-18 25-28 15zm46-10c-7-19 2-28 22-21 19 8 19 23 0 31l-16 6-6-16zm197-94v-110h40v220h-40v-110zm-1758 83 3-18h30v30l-18 3-19 4 4-19zm48 3c0-8 5-18 11-22l11-7 8 14c11 16 4 29-16 29h-14v-14zm97-2c-9-10 2-24 19-24h14v30h-13c-8 0-17-3-20-6zm45-6c3-7 12-14 21-16l17-3v31h-42l4-12zm828-8v-20h30v40h-30v-20zm152 3 3-18h30v30l-18 3-19 4 4-19zm-1707-40c-11-3-28-12-37-21l-18-15v-67l24-15 24-16 26 7 26 6v-21h100l100 1 15 15c8 8 18 26 21 40l7 25-20 26-20 27-27 3-27 3-25-15-24-16-6-40-7-40h-56l-3 58-3 57-25 2c-14 0-34-1-45-4zm33-60-3-38h-40l-3 29-4 29 14 8c7 5 19 9 26 9h13l-3-37zm206 11c3-9 6-24 6-34v-19l-18-10-18-9-17 9-17 10v22c0 27 17 47 41 47h17l6-16zm1820 42-31-14-7-17c-3-9-6-25-6-36v-19l21-21 21-21 29 6 28 5 6-9 6-10h129v130h-40v-100h-69l-3 58-3 57-25 2c-14 2-39-4-56-11zm46-50v-35l-10-6-11-7-14 12c-8 7-15 21-15 31v18l18 10c27 16 32 13 32-23zm282 31-22-23v-54l20-20 20-20h50v-29l-22-8c-13-4-29-8-37-8s-16-6-19-13l-4-12h69l27 21c14 11 26 27 26 35v14h100v131l-17-3-18-3-3-48-3-47h-59v77l-18 16-19 17h-50l-21-23zm66-19 12-12v-57l-27 3-28 3-3 23c-7 46 18 68 46 40zm-241-134c-9-10 2-24 19-24h14v30h-13c-8 0-17-3-20-6zm347-5-6-11 11-11 11-11 11 11 11 11-6 11c-4 6-11 11-16 11s-12-5-16-11zM217 1109c-14-30-27-65-31-79l-7-25 15 19c9 11 16 23 16 28v8h57l13-27 13-28 4 13 5 13-23 57c-12 31-26 61-30 66l-9 10-23-55zm43-31c0-4-9-8-21-8h-21l6 16c3 9 6 21 6 27l1 12 14-19c8-11 15-23 15-28zm70 7v-75h31c32 0 69 15 81 34 10 14 10 68 0 82-12 19-49 34-81 34h-31v-75zm92 30 12-26-10-27-9-27-33-3-32-3v111h60l12-25zm38 38c0-4 12-38 27-76l26-68 12 13c17 19 59 128 52 135-4 3-11-5-16-18s-15-40-23-58l-14-35-23 57c-13 31-27 57-32 57s-9-3-9-7zm140-39c-12-27-23-62-26-79l-4-30 12 28 12 27h53l11-25c6-14 16-25 22-25 5 0 10 1 10 3 0 10-53 133-61 141l-8 9-21-49zm39-36c1-5-8-8-19-8-23 0-24 4-8 33l11 22 8-20c4-11 8-23 8-27zm71 6v-75l10 6 10 6 1 47v47l22-29c12-16 32-41 44-55l22-26-1 80-1 80-6-55-6-55-38 53c-21 28-43 52-48 52h-9v-76zm159 57-23-18v-76l23-18 23-19h56l12 15 12 14-36-6-36-6-15 13-15 12v68l25 16 25 16 25-16c26-17 34-9 13 12l-12 12h-54l-23-19zm121-56v-75h89l6 10 6 10h-71v50h51l-6 10c-3 6-15 10-26 10h-19v40h60v20h-90v-75zm120-1v-77l42 6 43 6 17 21 18 22v49l-25 24-24 25h-71v-76zm78 44 12-12v-62l-12-12c-7-7-22-12-35-12h-23v110h23c13 0 28-5 35-12zm135 26-13-6v-54l35-17 35-17v-30h-56l-12 12-12 12v-10c0-32 52-44 85-21l18 14-6 25-7 26-30 10-30 11v15c0 8 4 18 10 21l10 6 21-12 21-11-4 14-5 13-24 2c-13 1-30-1-36-3zm101-38 26-45v-61h20v60l26 41c14 23 23 43 20 47-7 6-6 7-32-36l-20-33-20 36-19 35h-27l26-44zm118 32c-6-6-12-20-12-30v-19l35-20 35-21v-28h-56l-12 12-12 12v-10c0-18 24-34 50-34 32 0 50 17 50 48v23l-35 15-35 14v14c0 19 21 25 44 14l18-10-4 14-5 13-24 3-24 3-13-13zm88 2v-10h50v-130h20v130h50v20h-120v-10zm140-65v-75h90v20h-70v50h61l-6 10c-3 6-17 10-31 10h-24v40h70v20h-90v-75zm122-2 1-78 6 59 6 60 24-52c14-29 28-52 31-52 4 0 18 24 31 53l24 52 3-57 3-58h19v150h-26l-26-52-26-53-22 53-23 52h-27l2-77zm189 58-11-20 5-14c3-7 21-21 40-30 39-19 44-32 17-46l-19-10-21 15-22 15v-31l26-6 25-7 25 12 24 11v40l-41 26-41 26 15 15 15 15 22-12 22-12-4 14-5 13-31 3-31 3-10-20zm191-4-22-23v-63l22-21 22-20h27c15 0 34 3 43 6l16 6v58l-27-1-28-1 18-5 18-5-3-16-3-17-33-3-32-3-10 26-10 26 6 25 6 25 20 10 19 10 25-16 24-15v14c0 16-21 26-54 26h-23l-21-23zm189 1c-5-13-16-40-25-62-9-21-16-46-16-55l1-16 15 28 15 27h49l10-25c8-21 30-36 30-20s-56 145-62 145c-5 0-12-10-17-22zm29-55v-13h-30v18c0 10 3 22 7 25l7 7 8-12c4-7 8-19 8-25zm60 67v-10h50v-132l13 4 12 5 3 61 3 62h49v20h-130v-10zm159 6c-2-2-3-36-1-75l4-71h88v20h-70v50h50v20h-50v40h70v20h-43c-24 0-46-2-48-4z"/></g><g fill="#0a4373" transform="matrix(.1 0 0 -.1 0 300)"><path d="m1428 2233 13-5-18-22-18-21 23 19c26 23 28 36 5 35l-18-1 13-5zm202-27c0-2 7-7 16-10l15-6-6 10c-6 10-25 14-25 6zm-381-63-24-28 28 24c25 23 32 31 24 31-2 0-14-12-28-27zm471 2c13-14 26-25 28-25 3 0-5 11-18 25s-26 25-28 25c-3 0 5-11 18-25zm-215-16c-4-6-5-12-2-15 2-3 7 2 10 11 7 17 1 20-8 4zm-12-64v-40l4 23c2 12 2 30 0 40l-5 17 1-40zm-142 9 1-19 5 13c3 7 2 16-1 19-3 4-6-2-5-13zm0-90 1-19 5 13c3 7 2 16-1 19-3 4-6-2-5-13zm460-20 1-19 5 13c3 7 2 16-1 19-3 4-6-2-5-13zm-648-44v-45l4 23c2 12 2 32 0 45l-4 22v-45zm392 5c40-56 51-66 29-27-10 18-28 41-38 50l-20 17 29-40zm-175-9c0-2 8-10 18-17l17-14-14 18c-13 16-21 21-21 13zm431-42 1-19 5 13c3 7 2 16-1 19-3 4-6-2-5-13zm-355-57c3-10 9-15 12-12s0 11-7 18l-12 12 7-18zm155-3 1-19 5 13c3 7 2 16-1 19-3 4-6-2-5-13zm-421-33c0-6 4-13 10-16l10-6-6 15c-7 18-14 21-14 7zm292-41v-25l5 13c2 6 2 18 0 25l-5 12v-25zm130 0v-25l5 13c2 6 2 18 0 25l-5 12v-25zm127-27-14-18 18 14c9 7 17 15 17 17 0 8-8 3-21-13zm-479-28c19-19 36-35 39-35s-10 16-29 35-36 35-39 35 10-16 29-35zm434-17-19-23 23 19c21 18 27 26 19 26-2 0-12-10-23-22zm-119-14-17-26 11 6c11 7 35 46 28 46-3 0-12-12-22-26zm-265-8c0-3 9-10 20-16s20-8 20-6c0 3-9 10-20 16s-20 8-20 6zm320-16c-19-11-31-19-27-20 11 0 67 29 67 35 0 7-1 7-40-15zm-105-30-6-10h32l-6 10c-3 6-8 10-10 10s-7-4-10-10zm43 3c7-3 16-2 19 1 4 3-2 6-13 5l-19-1 13-5zm-1355-99c21-7 22-21 2-27l-15-5 17 2 18 1v30l-20 2-20 2 18-5zm57-3 15-11-15-11-15-11 15 5c8 2 15 10 15 17s-7 15-15 17l-15 5 15-11zm974-101v-115l3 58c2 31 2 83 0 115l-3 57v-115zm50 0v-115l3 58c2 31 2 83 0 115l-3 57v-115zm30 0v-115l3 58c2 31 2 83 0 115l-3 57v-115zm369 55v-60l4 33c2 18 2 45 0 60l-4 27v-60zm337-40v-95h-59l-3 47-3 48-18 1-17 2 14-5 15-4 3-47 3-47 38-3 37-3v100c0 56-2 101-5 101s-5-43-5-95zm84-15v-115l3 58c2 31 2 83 0 115l-3 57v-115zm30 0v-115l3 58c2 31 2 83 0 115l-3 57v-115zm130 99-7-12 13 8 12 8 10-14 10-14-4 14c-6 20-24 25-34 10zm280-99v-115l3 58c2 31 2 83 0 115l-3 57v-115zm-1769 91 8-13-14-9-14-9h12c6 0 15 5 19 11l6 11-12 11-13 12 8-14zm1561-8-7-18 12 12c7 7 10 15 7 18s-9-2-12-12zm-1365-9 1-19 5 13c3 7 2 16-1 19-3 4-6-2-5-13zm681-9v-30l5 18c2 9 2 23 0 30l-5 12v-30zm126 18c7-3 16-2 19 1 4 3-2 6-13 5l-19-1 13-5zm142-2v-10l15 5 15 6v-10c0-6-5-13-10-15l-10-5 12 2c7 2 13 9 13 17v14l-17 3-18 3v-10zm-1663-48 22-4 3-57 3-57h70l1 28 1 27-4-25-4-25h-58l-3 58-3 57-25 1-25 1 22-4zm2056 0c9-2 23-2 30 0l12 5h-60l18-5zm-1913-7c0-2 15-6 34-8l35-4-5 8c-5 8-64 12-64 4zm150-4v-9l30 5c17 2 30 6 30 8s-13 4-30 4h-30v-8zm195-12c-26-28-15-31 12-3 12 13 19 23 14 23-4 0-16-9-26-20zm66 17c2-1 13-9 24-17l20-15-14 18c-7 9-18 17-24 17s-8-1-6-3zm262-4c9-2 23-2 30 0l12 5h-60l18-5zm440 0c9-2 25-2 35 0l17 5h-70l18-5zm140-38v-50l4 28c2 15 2 37 0 50l-4 22v-50zm1014 35c12-5 26-17 32-27l10-18 1 11c0 15-34 44-51 43h-14l22-9zm-2297-15c-7-9-11-17-9-20 3-2 10 5 17 15 14 24 10 26-8 5zm552-32 1-48 4 42 4 42 17 4 17 5-22 1-23 1 2-47zm879 44c2-1 13-9 24-17l20-15-14 18c-7 9-18 17-24 17s-8-1-6-3zm641-4 17-4 4-62 3-62 2 68 2 67-22-1-23-1 17-5zm335 0c-4-3-7-26-7-49v-43l-32-4-33-4 38-1 37-2v98l13 5 12 5-11 1c-6 1-14-2-17-6zm-2610-10c-4-3-7-21-7-38v-33l18-13 17-14-14 17-13 18 4 35c4 38 4 38-5 28zm232-10-14-18 15 11c8 6 22 14 30 17l15 5-16 1-17 1-13-17zm373 5c-7-7-12-16-12-22 0-5 6-1 14 9l13 18 17-6 16-6 1-28 2-28 4 23 5 23-12 15c-15 17-32 18-48 2zm308 8c0-2 7-7 16-10l15-6-6 10c-6 10-25 14-25 6zm629-13-14-18 18 14c16 13 21 21 13 21-2 0-10-8-17-17zm566 7-6-10 15 6c18 7 21 14 7 14-6 0-13-4-16-10zm45-27-5-42 8 8 8 8-3 34-3 34-5-42zm321 34c2-1 13-9 24-17l20-15-14 18c-7 9-18 17-24 17s-8-1-6-3zm-2030-24c7-12 15-20 18-17 3 2-3 12-13 22l-18 17 13-22zm1147 10c6-2 18-2 25 0l12 5h-50l13-5zm826-7c-3-8-4-25-2-38l4-23 5 38c5 38 2 47-7 23zm-2394-20c0-14 4-27 8-30l8-5-4 30c-5 35-12 38-12 5zm2042-1v-30l5 18c2 9 2 23 0 30l-5 12v-30zm-1740-5v-25l5 13c2 6 2 18 0 25l-5 12v-25zm651-12 2-33 28-1 27-1-24 4-25 4-5 30-6 29 3-32zm319 7v-30l5 18c2 9 2 23 0 30l-5 12v-30zm1150 5v-25l5 13c2 6 2 18 0 25l-5 12v-25zm-1121-6 1-19 5 13c3 7 2 16-1 19-3 4-6-2-5-13zm320-6-1-28h-122l6 16 6 15-10-6c-6-3-10-13-10-21v-14h131l5 14c3 8 4 23 1 33l-5 18-1-27zm-217-13 1-20 28-1 27-1-24 4-25 4-4 17-4 17 1-20zm-860 3 5-17-37-4-37-4 43-1 42-2v8c0 4-5 14-11 22l-11 15 6-17zm-337-19c7-7 15-10 18-7s-2 9-12 12l-18 7 12-12zm43 1-15-10h12c6 0 15 5 18 10 8 12 4 12-15 0zm400-2v-8h40c22 0 40 2 40 4s-18 6-40 8l-40 4v-8zm145 2-30-8 27-1 27-1 6 10c3 6 5 9 3 9-2-1-16-5-33-9zm100 0-20-9h17c9-1 20 4 23 9 7 11 7 11-20 0zm445 0-25-8 22-1c12-1 25 4 28 9 3 6 5 10 3 9s-14-5-28-9zm-977-7c15-2 39-2 55 0l27 4H535l28-4zm1310 0c9-2 25-2 35 0l17 5h-70l18-5zm515 0c12-2 30-2 40 0l17 5-40-1h-40l23-4zm270 0c6-2 18-2 25 0l12 5h-50l13-5zm-2440-10c7-3 16-2 19 1 4 3-2 6-13 5l-19-1 13-5zm2070 0c6-2 18-2 25 0l12 5h-50l13-5zm59-4c7-7 15-10 18-7s-2 9-12 12l-18 7 12-12zm-2069-6c6-2 18-2 25 0l12 5h-50l13-5zm360 0c7-3 16-2 19 1 4 3-2 6-13 5l-19-1 13-5zm155 0c9-2 25-2 35 0l17 5h-70l18-5zm175 0c7-3 16-2 19 1 4 3-2 6-13 5l-19-1 13-5zm50 0c7-3 16-2 19 1 4 3-2 6-13 5l-19-1 13-5zm910 0c7-3 16-2 19 1 4 3-2 6-13 5l-19-1 13-5zm710 0c7-3 16-2 19 1 4 3-2 6-13 5l-19-1 13-5zm69-22-6-24 11 11c5 5 8 16 6 23l-4 13-7-23zm-1286-7 1-19 5 13c3 7 2 16-1 19-3 4-6-2-5-13zm1229-14-15-10h12c6 0 15 5 18 10 8 12 4 12-15 0zm134-1-6-11 11-11 11-11 11 11 11 11-6 11c-4 6-11 11-16 11s-12-5-16-11zm26-9c0-5-4-10-10-10-5 0-10 5-10 10 0 6 5 10 10 10 6 0 10-4 10-10zm-205-1c-4-6-5-12-2-15 2-3 7 2 10 11 7 17 1 20-8 4zM225 1130c-8-16-13-30-10-30s-2-11-10-24l-16-24 10-7 11-6v21l23 1 22 1-20 6-21 7 12 24 12 23 9-17 10-17 6 16 7 17-11-7-11-7 6 21 7 20-10 6-10 7-16-31zm115 20c8-5 25-10 38-10h22v20h-75l15-10zm120-2c0-7 4-19 9-26l8-14 6 17 7 16-12-7-11-7 6 16 6 17h-9c-6 0-10-6-10-12zm101-9c-5-13-16-41-24-61l-16-38 7-4 8-5 23 60c13 33 21 63 17 66-3 3-10-5-15-18zm41-19c-10-25-22-55-26-67l-7-23h22l-6 11-7 10 23 6 23 6-17 6-17 6 26 30 25 30-6-23-6-22 16-6 16-6-6-22-6-21 11 17 10 16-6 16-6 16-10-6-10-7 6 20 6 19-14 20-14 19-20-45zm19 7-12-12 7 18c3 10 9 15 12 12s0-11-7-18zm89-43v-75l10 6 10 6v90l13-8c6-4 18-8 25-9l13-2-12 14c-6 8-14 12-17 9-7-7-32 15-32 27v10l18-13 17-14-14 18c-7 9-17 17-22 17h-9v-76zm180 64v-11l-7 6-6 7-14-11c-7-6-13-17-13-23v-11l10 15c5 8 10 12 10 7 0-4 11 0 25 9l24 16 10-6 10-6 6 10 6 10h-61v-12zm100-63v-75h89l6 10 6 10h-71v50h51l-6 10c-3 6-15 10-26 10h-19v40h60v20h-90v-75zm17-32-4-38v140l4-32c2-18 2-50 0-70zm113 97c8-5 24-10 36-10 11 0 26-6 33-12l13-13-13 23-14 22h-70l15-10zm210 0v-11l-8 5-9 5-1-28-1-28 35-16 34-17v-30h-56l-13 13-13 12 4-14c2-8 12-19 21-25l16-10 28 10 28 9 3 24 4 23-10-6-11-6-6 10-6 10h26l-15 10c-8 5-22 7-30 5l-16-5-2 25-2 24 10 6 10 6 21-12 21-11-4 13-4 12-27 4-27 4v-11zm94-34 26-44 2-31c1-17 6-31 10-31 10 0 11 54 1 64-4 4-8 15-8 24v17l-14-3-13-3 6 16 6 16-12-7-11-7 6 16 6 17h-31l26-44zm79 38c3-3-2-14-11-24-14-17-25-50-17-50 4 0 45 69 45 76 0 2-5 4-12 4-6 0-9-3-5-6zm47-4v-12l13 5c6 2 20 0 31-5l18-10-4 14-5 13-26 3-27 3v-11zm80 1v-9h120v18h-120v-9zm140-66v-75h90v22l-40-4-40-4v122l40-4 40-4v22h-90v-75zm128 68c7-3 16-2 19 1 4 3-2 6-13 5l-19-1 13-5zm120 0c7-3 16-2 19 1 4 3-2 6-13 5l-19-1 13-5zm69 1c-3-4-4-11-1-16l6-9 13 11c15 12 36 10 48-5l9-10-5 15-4 15-29 3c-16 2-33 0-37-4zm197-5-7-12 25 6 24 6 22-15c25-17 29-10 8 12l-15 14h-50l-7-11zm181 0c-4-6-5-13-1-16 3-3-2-12-10-20-8-9-13-20-11-27 2-6-2-17-10-24-7-7-13-23-13-35l1-22 15 28 15 27 17 1 17 1-12 5-13 5v18c0 10 4 21 9 24l9 6 4-12 4-12 7 17 6 17-11-3c-6-1-13 4-16 12l-5 14 12-7 11-7v10c0 14-17 14-25 0zm85 1v-10h50v-132l12 4c6 2 13 11 16 19l4 14-11-15-11-15v134l35-6 35-6v23h-130v-10zm155 0-6-10 15 6 15 6-3-19c-2-10-1-12 1-5l4 12h69v20h-89l-6-10zm-1750-20c3-5 8-10 11-10 2 0 4 5 4 10 0 6-5 10-11 10h-10l6-10zm935-55c0-38 2-66 4-64 8 7 10 118 3 126l-7 6v-68zm26 50-6-16 18-32 17-32h30l23 44c25 51 25 51 14 51-5 0-17-18-27-41l-19-41-11 16-12 16-8-8-7-7 6 20 6 20-9 13-8 14-7-17zm117-40v-60l4 33c2 18 2 45 0 60l-4 27v-60zm-920-15 1-60h56v18l-22-2-23-3 3 54 4 53h-19v-60zm957 55c0-5 5-17 10-25l10-15v26l10-6 10-6-5-10-6-9 17 7 16 6-18 10c-11 6-21 10-23 8-2-1-8 3-12 11l-9 13v-10zm184-10c-4-9-4-19 0-22 3-4 6 2 6 13v19l10-15 10-15v12c0 6-5 15-10 18l-10 6-6-16zm-1921-35v-45l4 23c2 12 2 32 0 45l-4 22v-45zm107 25c-1-11-1-28 0-39l2-18-14 8-13 7 7-8 8-8-12-14-11-13 17 6 16 6 6 23c3 13 4 34 1 46l-4 24-3-20zm46 0c-9-26-7-32 5-12 6 10 9 21 6 23-2 3-7-2-11-11zm1049 5-6-10 35-20c19-12 37-27 39-34l6-14-34-4-34-4-6 14c-3 8-8 12-12 9-3-4 0-13 7-22l12-15h54l12 12c7 7 12 22 12 35v22l-19 11-20 10-17-7-17-6 7 11 6 11-9 5-10 6-6-10zm65-30c8-5 12-11 10-14-3-2-14 2-24 10-22 15-10 19 14 4zm-399 5c0-17-6-36-13-43l-12-12 7-7 7-7 13 15 13 14-7 35-6 35-2-30zm21 0v-30l5 18c2 9 2 23 0 30l-5 12v-30zm-381-1 1-19 5 13c3 7 2 16-1 19-3 4-6-2-5-13zm949 6v-10h61l-6 10c-3 6-17 10-31 10h-24v-10zm928-35-3-45h85v20h-70v50h50v20h-58l-4-45zm-1861 13-6-22 11-13 10-13 9 6 9 5v-21h58l12 15 12 15h-11c-6 0-11-4-11-9v-9l-22 5c-13 3-30 7-38 10-8 4-18 5-23 5l-7-2 6 25c3 14 4 25 1 25-2 0-7-10-10-22zm1273 12-15-10 15-1c8-1 18-1 23 0 4 0 7-5 7-12v-14l-24-11-24-11-21 15-21 15v-31l26-6 25-7 25 12 24 11v19c0 10-6 23-13 29l-13 11-14-9zm360-2c0-9 4-19 9-22l9-6 6 16c4 9 4 19 1 22s-5-1-5-9v-14l-10 15-10 15v-17zm-1710-29c12-15 26-32 33-35 7-4 3 2-7 14l-19 22h33l-1 18-1 17-5-13-5-12-11 7c-7 4-18 8-25 9l-12 2 20-29zm1471 15 1-19 5 13c3 7 2 16-1 19-3 4-6-2-5-13zm87 9c7-3 16-2 19 1 4 3-2 6-13 5l-19-1 13-5zm-2061-10c-4-3-7-10-7-15v-9l12 7 11 7-6-16-6-16 9-6 8-5-3 25c-3 29-9 38-18 28zm229-8c-9-26-7-32 5-12 6 10 9 21 6 23-2 3-7-2-11-11zm1811-22-37-4 5-10c7-10 55-12 79-3 19 7 22 25 4 22-7-1-30-3-51-5zm-2137-14v-10l10 6c6 3 10 8 10 11 0 2-4 4-10 4-5 0-10-5-10-11zm165 1-20-9h38l37-1v20l-17-1c-10 0-27-4-38-9zm321-2c3-4 9-8 15-8 5 0 9 4 9 8 0 5-7 9-15 9h-14l5-9zm1850 0c3-4 9-8 15-8 5 0 9 4 9 8 0 5-7 9-15 9h-14l5-9z"/></g></g></svg>