<?xml version="1.0" encoding="utf-8"?>
<!DOCTYPE svg PUBLIC "-//W3C//DTD SVG 20010904//EN" "http://www.w3.org/TR/2001/REC-SVG-20010904/DTD/svg10.dtd">
<svg version="1.0" xmlns="http://www.w3.org/2000/svg" width="514pt" height="514pt" viewBox="0 0 514 514" style="" preserveAspectRatio="xMidYMid meet">
<g fill="#D72D34FE" stroke="#D72D34FE">
<path d="M 360.527 144.114 C 338.349 147.344 323.930 169.374 323.605 200.523 C 323.512 209.427 323.785 211.102 326.055 215.515 C 327.870 219.044 330.018 221.353 333.474 223.491 L 338.338 226.500 371.472 226.799 C 403.335 227.087 404.703 227.022 407.149 225.098 C 409.830 222.989 411.222 218.880 418.867 190.500 L 422.639 176.500 402.478 176.230 L 382.316 175.960 378.763 184.480 L 375.210 193.000 383.214 193.000 L 391.217 193.000 390.535 195.750 C 389.217 201.066 385.511 206.489 381.995 208.248 C 378.082 210.206 365.405 210.625 358.500 209.025 C 352.517 207.639 351.000 205.126 351.000 196.599 C 351.000 182.871 356.189 169.995 363.937 164.500 L 368.167 161.500 396.799 161.000 L 425.432 160.500 427.686 152.500 C 428.925 148.100 429.953 144.163 429.970 143.750 C 430.012 142.714 367.902 143.040 360.527 144.114 "/></g>
<g fill="#D72D34FE" stroke="#D72D34FE">
<path d="M 156.502 148.783 C 154.304 151.377 140.803 166.775 126.500 183.000 C 92.136 221.983 89.000 225.609 89.000 226.361 C 89.000 226.712 101.263 226.993 116.250 226.984 L 143.500 226.968 146.131 218.484 L 148.762 210.000 137.381 210.000 C 131.121 210.000 126.000 209.749 126.000 209.442 C 126.000 208.997 144.072 188.041 149.599 182.077 C 150.722 180.864 151.076 181.071 151.989 183.472 C 152.579 185.022 156.940 195.462 161.681 206.672 L 170.302 227.054 183.537 226.777 L 196.771 226.500 187.861 205.500 C 165.480 152.750 161.672 144.002 161.105 144.033 C 160.772 144.051 158.701 146.188 156.502 148.783 "/></g>
<g fill="#054D81FE" stroke="#054D81FE">
<path d="M 267.166 138.541 C 260.340 144.678 255.992 153.405 256.022 160.910 C 256.049 167.908 258.292 172.963 265.399 182.047 C 268.411 185.895 272.140 191.622 273.687 194.772 C 276.172 199.831 276.500 201.609 276.500 210.000 C 276.500 218.214 276.137 220.274 273.820 225.218 C 272.346 228.363 268.971 233.259 266.320 236.098 L 261.500 241.260 265.000 240.522 C 292.090 234.813 311.000 212.592 311.000 186.468 C 311.000 170.287 305.976 157.874 295.026 147.000 C 288.919 140.935 277.504 134.000 273.629 134.000 C 272.852 134.000 269.944 136.043 267.166 138.541 "/></g>
<g fill="#054D81FE" stroke="#054D81FE">
<path d="M 239.500 132.867 C 230.391 135.484 223.188 139.795 215.885 146.999 C 190.904 171.639 195.884 213.406 226.139 233.004 C 229.241 235.013 234.292 237.447 237.364 238.413 L 242.949 240.170 245.425 237.335 C 253.068 228.580 255.959 216.418 252.530 207.441 C 251.572 204.930 247.185 198.076 242.782 192.210 C 238.379 186.343 234.352 180.425 233.832 179.058 C 228.482 164.987 232.389 149.650 244.480 137.258 C 250.057 131.542 250.366 131.006 248.043 131.071 C 246.644 131.110 242.800 131.918 239.500 132.867 "/></g>
<g fill="#054D81FE" stroke="#054D81FE">
<path d="M 285.000 270.800 C 285.000 288.110 284.724 289.000 279.359 289.000 C 275.462 289.000 275.129 288.543 274.508 282.339 C 273.836 275.629 272.200 272.155 268.909 270.453 C 264.542 268.195 260.429 268.642 256.976 271.750 C 254.477 273.999 253.716 275.745 252.798 281.336 C 251.852 287.099 251.301 288.315 249.289 289.080 C 246.590 290.106 244.000 295.438 244.000 299.968 C 244.000 302.477 244.402 303.000 246.332 303.000 C 248.319 303.000 248.801 302.297 249.582 298.250 L 250.500 293.500 260.000 292.755 C 265.225 292.345 270.175 292.058 271.000 292.116 C 271.825 292.175 285.713 292.412 301.862 292.642 C 322.308 292.933 331.625 292.726 332.548 291.960 C 333.494 291.175 334.442 291.166 335.870 291.931 C 336.969 292.519 341.498 293.000 345.934 293.000 L 354.000 293.000 354.000 274.000 L 354.000 255.000 351.000 255.000 L 348.000 255.000 348.000 272.000 L 348.000 289.000 343.200 289.000 C 340.560 289.000 337.860 288.460 337.200 287.800 C 336.472 287.072 336.000 283.533 336.000 278.800 L 336.000 271.000 333.109 271.000 L 330.217 271.000 330.679 277.251 C 330.932 280.688 330.661 284.762 330.075 286.303 C 329.071 288.944 328.708 289.087 323.755 288.802 L 318.500 288.500 317.969 283.000 C 317.068 273.659 314.519 271.000 306.467 271.000 C 300.994 271.000 295.741 273.243 292.973 276.762 L 291.000 279.270 291.000 267.135 L 291.000 255.000 288.000 255.000 L 285.000 255.000 285.000 270.800 M 309.738 276.529 C 312.122 278.199 313.576 283.610 312.528 286.913 C 311.909 288.861 311.139 289.000 300.933 289.000 C 288.754 289.000 288.363 288.725 292.274 282.922 C 296.970 275.953 304.816 273.081 309.738 276.529 M 267.750 275.831 C 268.438 276.684 269.000 279.296 269.000 281.634 C 269.000 284.895 268.482 286.250 266.777 287.443 C 262.005 290.786 258.000 288.248 258.000 281.883 C 258.000 274.823 263.958 271.124 267.750 275.831 "/></g>
<g fill="#054D81FE" stroke="#054D81FE">
<path d="M 208.000 272.000 L 208.000 289.000 204.122 289.000 C 199.217 289.000 198.353 287.866 197.785 280.685 C 197.172 272.935 194.013 269.500 187.500 269.500 C 181.134 269.500 178.174 272.691 177.030 280.788 C 175.941 288.494 175.609 289.000 171.641 289.000 C 166.802 289.000 166.000 287.549 166.000 278.800 L 166.000 271.000 163.039 271.000 L 160.078 271.000 159.789 279.750 L 159.500 288.500 152.750 288.796 C 145.692 289.105 145.119 288.749 147.532 285.559 C 149.307 283.211 149.435 278.048 147.805 274.472 C 144.475 267.164 132.392 267.474 128.517 274.967 C 126.477 278.912 126.613 281.852 129.016 285.794 L 131.024 289.088 123.773 288.794 L 116.521 288.500 115.759 283.181 C 115.340 280.256 114.519 276.969 113.934 275.878 C 112.145 272.534 106.905 270.008 101.750 270.004 C 97.775 270.001 97.000 270.305 97.000 271.870 C 97.000 273.354 97.962 273.848 101.667 274.266 C 106.937 274.860 109.459 277.302 110.493 282.813 C 111.470 288.023 109.951 289.000 100.878 289.000 C 93.667 289.000 93.000 289.169 93.000 291.000 C 93.000 292.844 93.667 293.000 101.566 293.000 C 106.277 293.000 111.031 292.519 112.130 291.931 C 113.467 291.215 114.526 291.192 115.332 291.861 C 116.090 292.490 125.056 292.708 139.518 292.451 C 152.158 292.226 163.625 292.090 165.000 292.149 C 166.375 292.208 169.750 292.222 172.500 292.179 C 175.250 292.136 178.625 292.136 180.000 292.179 C 183.845 292.299 191.219 292.271 194.000 292.127 C 195.375 292.056 200.454 292.270 205.286 292.603 L 214.072 293.208 213.957 274.104 L 213.842 255.000 210.921 255.000 L 208.000 255.000 208.000 272.000 M 192.382 278.837 C 193.473 282.641 191.645 287.661 188.843 288.550 C 187.760 288.894 185.819 288.456 184.451 287.560 C 180.952 285.267 181.001 278.908 184.546 275.363 C 186.879 273.030 187.276 272.939 189.293 274.279 C 190.504 275.082 191.894 277.133 192.382 278.837 M 142.000 275.000 C 146.087 279.087 143.435 287.000 137.978 287.000 C 134.547 287.000 133.000 284.707 133.000 279.622 C 133.000 277.130 133.644 275.662 135.223 274.557 C 138.160 272.499 139.593 272.593 142.000 275.000 "/></g>
<g fill="#054D81FE" stroke="#054D81FE">
<path d="M 39.667 268.971 C 37.558 269.379 34.633 270.912 33.167 272.379 C 30.980 274.566 30.500 275.957 30.500 280.109 C 30.500 284.457 30.910 285.526 33.400 287.667 C 35.753 289.692 37.167 290.103 40.900 289.852 C 44.116 289.635 46.328 290.097 48.252 291.387 C 50.543 292.924 52.135 293.124 57.752 292.584 C 61.463 292.228 65.625 291.981 67.000 292.036 C 81.474 292.618 80.989 292.698 84.083 289.234 C 86.284 286.770 87.000 284.978 87.000 281.935 C 87.000 271.591 77.718 265.826 69.314 270.950 C 65.382 273.348 64.396 275.128 63.473 281.500 C 62.548 287.881 61.593 289.000 57.078 289.000 C 51.618 289.000 51.000 287.810 51.000 277.300 L 51.000 268.000 47.250 268.115 C 45.188 268.178 41.775 268.564 39.667 268.971 M 79.116 274.893 C 83.930 278.791 81.153 289.000 75.279 289.000 C 70.620 289.000 69.000 287.303 69.000 282.419 C 69.000 278.964 69.574 277.335 71.455 275.455 C 74.404 272.505 76.021 272.387 79.116 274.893 M 46.000 278.300 C 46.000 284.054 44.830 286.000 41.371 286.000 C 38.169 286.000 36.000 283.375 36.000 279.500 C 36.000 275.211 38.235 273.000 42.571 273.000 L 46.000 273.000 46.000 278.300 "/></g>
<g fill="#054D81FE" stroke="#054D81FE">
<path d="M 448.933 271.266 C 444.335 274.365 442.320 279.787 443.859 284.923 C 445.300 289.733 449.083 292.347 455.000 292.620 C 458.760 292.794 459.446 293.130 459.174 294.664 C 458.597 297.916 455.373 300.204 450.612 300.740 C 446.959 301.152 446.000 301.649 446.000 303.130 C 446.000 304.648 446.760 305.000 450.040 305.000 C 456.187 305.000 461.914 301.630 463.762 296.923 L 465.303 293.000 473.652 293.000 L 482.000 293.000 482.000 282.000 L 482.000 271.000 479.539 271.000 C 477.134 271.000 477.071 271.199 476.789 279.750 L 476.500 288.500 470.750 288.800 L 465.000 289.100 465.000 283.097 C 465.000 275.919 463.787 272.896 460.010 270.665 C 456.172 268.398 452.928 268.574 448.933 271.266 M 458.535 276.413 C 459.573 277.997 460.011 280.489 459.808 283.663 C 459.500 288.497 459.498 288.500 456.022 288.328 C 451.949 288.126 449.000 285.096 449.000 281.112 C 449.000 274.740 455.379 271.597 458.535 276.413 "/></g>
<g fill="#054D81FE" stroke="#054D81FE">
<path d="M 393.014 269.024 C 384.413 271.046 381.071 281.225 387.046 287.200 C 389.806 289.960 390.554 290.201 395.026 289.772 C 398.958 289.394 400.299 289.673 401.635 291.149 C 403.059 292.723 404.857 293.000 413.655 293.000 L 424.000 293.000 424.000 282.000 L 424.000 271.000 421.000 271.000 L 418.000 271.000 418.000 280.000 L 418.000 289.000 412.700 289.000 C 409.785 289.000 406.860 288.460 406.200 287.800 C 405.439 287.039 405.000 283.200 405.000 277.300 L 405.000 268.000 400.750 268.102 C 398.413 268.159 394.931 268.574 393.014 269.024 M 400.000 278.300 C 400.000 284.054 398.830 286.000 395.371 286.000 C 392.238 286.000 390.000 283.399 390.000 279.757 C 390.000 275.576 392.537 273.000 396.655 273.000 L 400.000 273.000 400.000 278.300 "/></g>
<g fill="#054D81FE" stroke="#054D81FE">
<path d="M 190.218 327.750 L 190.500 339.500 194.500 339.829 C 203.889 340.602 210.000 336.100 210.000 328.412 C 210.000 319.438 206.127 316.000 196.018 316.000 L 189.937 316.000 190.218 327.750 M 203.152 319.081 C 205.499 320.337 207.324 326.460 206.562 330.522 C 205.764 334.775 201.798 338.000 197.365 338.000 L 194.000 338.000 194.000 327.389 L 194.000 316.777 197.732 317.477 C 199.784 317.862 202.223 318.584 203.152 319.081 "/></g>
<g fill="#054D81FE" stroke="#054D81FE">
<path d="M 58.000 328.137 L 58.000 340.274 64.304 339.768 C 71.746 339.170 74.429 337.723 76.610 333.127 C 79.385 327.278 76.703 318.978 71.383 316.955 C 70.001 316.430 66.424 316.000 63.435 316.000 L 58.000 316.000 58.000 328.137 M 71.750 320.574 C 73.444 322.484 74.000 324.345 74.000 328.101 C 74.000 334.666 70.984 338.000 65.045 338.000 L 61.000 338.000 61.000 327.372 L 61.000 316.744 65.250 317.390 C 67.977 317.804 70.306 318.945 71.750 320.574 "/></g>
<g fill="#054D81FE" stroke="#054D81FE">
<path d="M 323.647 324.210 C 323.898 338.297 323.968 339.000 325.122 339.000 C 325.901 339.000 326.113 336.243 325.814 330.000 C 325.578 325.050 325.672 321.000 326.024 321.000 C 326.376 321.000 328.667 325.368 331.116 330.706 L 335.570 340.411 340.009 330.206 C 342.451 324.593 344.798 320.000 345.225 320.000 C 345.651 320.000 346.000 324.538 346.000 330.083 C 346.000 337.705 346.305 340.065 347.250 339.752 C 348.132 339.459 348.583 335.906 348.782 327.668 C 349.062 316.043 349.055 316.000 346.739 316.000 C 344.790 316.000 343.798 317.370 340.587 324.500 C 338.482 329.175 336.439 333.000 336.049 333.000 C 335.659 333.000 333.728 329.288 331.758 324.750 C 328.874 318.108 327.720 316.444 325.838 316.210 C 323.542 315.925 323.503 316.069 323.647 324.210 "/></g>
<g fill="#054D81FE" stroke="#054D81FE">
<path d="M 431.000 274.000 L 431.000 293.000 434.000 293.000 L 437.000 293.000 437.000 274.000 L 437.000 255.000 434.000 255.000 L 431.000 255.000 431.000 274.000 "/></g>
<g fill="#054D81FE" stroke="#054D81FE">
<path d="M 221.000 274.000 L 221.000 293.000 224.000 293.000 L 227.000 293.000 227.000 274.000 L 227.000 255.000 224.000 255.000 L 221.000 255.000 221.000 274.000 "/></g>
<g fill="#054D81FE" stroke="#054D81FE">
<path d="M 362.000 274.000 L 362.000 293.000 364.500 293.000 L 367.000 293.000 367.000 274.000 L 367.000 255.000 364.500 255.000 L 362.000 255.000 362.000 274.000 "/></g>
<g fill="#054D81FE" stroke="#054D81FE">
<path d="M 36.774 327.250 C 34.323 333.438 32.680 338.911 33.122 339.413 C 33.823 340.209 34.469 339.030 36.498 333.250 C 36.768 332.481 38.814 332.000 41.817 332.000 C 46.581 332.000 46.734 332.094 48.268 336.000 C 49.236 338.466 50.486 340.000 51.527 340.000 C 52.478 340.000 52.994 339.455 52.710 338.750 C 52.433 338.063 50.285 332.663 47.937 326.750 C 45.589 320.838 43.119 316.000 42.448 316.000 C 41.778 316.000 39.224 321.063 36.774 327.250 M 44.204 325.413 C 45.104 327.841 45.576 330.091 45.253 330.413 C 44.264 331.403 38.000 331.063 38.000 330.020 C 38.000 328.360 41.176 321.000 41.893 321.000 C 42.265 321.000 43.305 322.986 44.204 325.413 "/></g>
<g fill="#054D81FE" stroke="#054D81FE">
<path d="M 418.089 327.493 C 415.680 333.845 414.004 339.338 414.365 339.699 C 414.726 340.060 415.760 338.475 416.662 336.177 C 418.275 332.073 418.388 332.000 423.160 332.000 C 427.892 332.000 428.057 332.102 429.617 336.000 C 431.181 339.910 432.344 340.871 433.414 339.139 C 434.248 337.790 425.360 316.533 423.833 316.222 C 422.926 316.037 421.002 319.811 418.089 327.493 M 425.391 325.020 C 426.276 327.231 427.000 329.481 427.000 330.020 C 427.000 331.063 420.736 331.403 419.747 330.413 C 419.039 329.706 422.147 321.000 423.107 321.000 C 423.479 321.000 424.507 322.809 425.391 325.020 "/></g>
<g fill="#054D81FE" stroke="#054D81FE">
<path d="M 102.027 327.542 C 99.675 333.890 98.013 339.346 98.333 339.667 C 98.654 339.987 99.659 338.393 100.567 336.125 C 102.181 332.089 102.322 332.000 107.044 332.000 C 111.643 332.000 111.930 332.163 113.124 335.465 C 114.224 338.507 116.603 340.730 117.644 339.689 C 118.458 338.875 108.730 316.000 107.569 316.000 C 106.870 316.000 104.392 321.160 102.027 327.542 M 109.322 325.138 C 111.243 330.029 110.859 331.000 107.000 331.000 C 105.415 331.000 103.878 330.612 103.585 330.138 C 102.955 329.118 105.988 321.000 107.000 321.000 C 107.383 321.000 108.428 322.862 109.322 325.138 "/></g>
<g fill="#054D81FE" stroke="#054D81FE">
<path d="M 122.000 327.500 C 122.000 334.500 122.391 339.000 123.000 339.000 C 123.593 339.000 124.000 335.333 124.000 330.000 C 124.000 325.050 124.338 321.015 124.750 321.034 C 125.163 321.052 128.563 325.327 132.308 330.534 C 136.052 335.740 139.539 340.000 140.058 340.000 C 140.595 340.000 141.000 334.844 141.000 328.000 C 141.000 320.667 140.611 316.000 140.000 316.000 C 139.412 316.000 139.000 319.500 139.000 324.500 C 139.000 329.175 138.663 332.977 138.250 332.948 C 137.838 332.920 134.854 329.095 131.619 324.448 C 127.800 318.961 125.083 316.000 123.869 316.000 C 122.152 316.000 122.000 316.935 122.000 327.500 "/></g>
<g fill="#054D81FE" stroke="#054D81FE">
<path d="M 392.270 316.483 C 383.445 320.319 382.625 334.169 390.967 338.483 C 394.456 340.287 400.902 340.457 404.453 338.839 C 406.672 337.829 407.000 337.055 407.000 332.839 L 407.000 328.000 402.500 328.000 C 397.615 328.000 396.278 329.669 400.750 330.184 C 402.741 330.413 403.590 331.136 403.827 332.805 C 404.326 336.327 402.273 338.000 397.450 338.000 C 391.667 338.000 389.000 334.777 389.000 327.788 C 389.000 323.659 389.481 322.365 391.923 319.923 C 395.205 316.641 397.731 316.292 402.050 318.526 C 404.632 319.861 405.000 319.867 405.000 318.573 C 405.000 317.716 403.423 316.656 401.250 316.053 C 396.562 314.751 396.216 314.767 392.270 316.483 "/></g>
<g fill="#054D81FE" stroke="#054D81FE">
<path d="M 303.218 327.750 L 303.500 339.500 311.250 339.792 C 316.145 339.977 319.000 339.700 319.000 339.042 C 319.000 338.435 316.495 338.000 313.000 338.000 L 307.000 338.000 307.000 332.924 L 307.000 327.847 310.985 328.135 C 313.176 328.293 315.089 327.990 315.235 327.461 C 315.381 326.933 313.588 326.362 311.250 326.193 C 307.021 325.886 307.000 325.866 307.000 321.943 L 307.000 318.000 312.500 318.000 C 315.525 318.000 318.000 317.550 318.000 317.000 C 318.000 316.422 314.823 316.000 310.468 316.000 L 302.937 316.000 303.218 327.750 "/></g>
<g fill="#054D81FE" stroke="#054D81FE">
<path d="M 463.218 327.750 L 463.500 339.500 471.250 339.792 C 476.145 339.977 479.000 339.700 479.000 339.042 C 479.000 338.425 476.325 338.000 472.445 338.000 L 465.890 338.000 466.195 333.250 L 466.500 328.500 470.500 328.412 C 472.700 328.364 474.500 327.914 474.500 327.412 C 474.500 326.911 472.700 326.500 470.500 326.500 C 466.509 326.500 466.499 326.490 466.193 322.250 L 465.885 318.000 471.883 318.000 C 475.183 318.000 478.160 317.550 478.500 317.000 C 478.893 316.365 476.166 316.000 471.027 316.000 L 462.937 316.000 463.218 327.750 "/></g>
<g fill="#054D81FE" stroke="#054D81FE">
<path d="M 266.098 316.265 C 259.866 319.470 260.769 324.678 268.254 328.688 C 272.791 331.120 273.500 331.905 273.500 334.500 C 273.500 337.259 273.191 337.525 269.652 337.816 C 267.058 338.029 265.182 337.570 263.896 336.406 C 262.846 335.456 261.653 335.015 261.244 335.426 C 259.900 336.775 265.140 340.000 268.677 340.000 C 273.171 340.000 275.861 338.496 277.074 335.304 C 278.433 331.730 276.042 328.376 270.414 325.963 C 265.616 323.906 264.083 321.683 265.693 319.114 C 267.108 316.856 270.669 316.553 273.558 318.446 C 275.590 319.777 276.000 319.807 276.000 318.621 C 276.000 317.837 274.583 316.702 272.851 316.098 C 268.985 314.750 269.046 314.749 266.098 316.265 "/></g>
<g fill="#054D81FE" stroke="#054D81FE">
<path d="M 171.000 328.000 L 171.000 340.000 178.500 340.000 C 182.833 340.000 186.000 339.578 186.000 339.000 C 186.000 338.444 183.333 338.000 180.000 338.000 L 174.000 338.000 174.000 333.000 L 174.000 328.000 178.500 328.000 C 180.975 328.000 183.000 327.550 183.000 327.000 C 183.000 326.450 180.949 326.000 178.443 326.000 L 173.885 326.000 174.193 321.791 L 174.500 317.581 179.648 317.859 C 182.530 318.015 185.088 317.667 185.458 317.069 C 185.904 316.346 183.668 316.000 178.559 316.000 L 171.000 316.000 171.000 328.000 "/></g>
<g fill="#054D81FE" stroke="#054D81FE">
<path d="M 359.315 315.996 C 356.426 317.175 354.683 320.602 355.440 323.616 C 355.863 325.301 357.729 326.870 361.523 328.731 C 364.534 330.207 367.269 332.272 367.601 333.319 C 369.000 337.726 360.930 340.056 356.899 336.409 C 355.189 334.861 355.000 334.852 355.000 336.310 C 355.000 340.395 364.321 341.348 368.567 337.696 C 370.843 335.738 371.138 334.903 370.530 332.134 C 369.933 329.417 368.877 328.427 364.167 326.169 C 360.963 324.633 358.372 322.692 358.177 321.683 C 357.306 317.160 364.125 315.283 367.595 319.090 L 369.500 321.180 369.191 319.112 C 369.021 317.975 368.571 316.863 368.191 316.640 C 366.364 315.569 361.267 315.199 359.315 315.996 "/></g>
<g fill="#054D81FE" stroke="#054D81FE">
<path d="M 228.315 315.996 C 225.424 317.176 223.683 320.603 224.442 323.623 C 224.874 325.347 226.725 326.862 230.767 328.799 C 236.603 331.597 238.152 333.907 235.960 336.548 C 234.330 338.513 228.086 338.387 225.829 336.345 C 224.158 334.833 224.000 334.830 224.000 336.310 C 224.000 340.225 233.051 341.321 237.365 337.927 C 242.299 334.047 240.656 329.748 232.803 325.993 C 227.388 323.403 225.894 321.037 228.040 318.452 C 229.612 316.558 232.989 316.604 235.777 318.557 C 237.725 319.921 238.000 319.928 238.000 318.616 C 238.000 317.792 237.663 316.919 237.250 316.677 C 235.377 315.574 230.297 315.187 228.315 315.996 "/></g>
<g fill="#054D81FE" stroke="#054D81FE">
<path d="M 152.500 316.521 C 146.067 319.907 143.539 327.120 146.558 333.480 C 148.582 337.746 152.444 340.000 157.728 340.000 C 161.627 340.000 166.000 337.773 166.000 335.788 C 166.000 335.184 165.177 335.435 164.171 336.345 C 161.556 338.712 154.527 338.527 152.025 336.025 C 145.342 329.342 150.281 315.984 158.925 317.367 C 160.891 317.682 163.288 318.903 164.250 320.080 L 166.000 322.222 166.000 320.146 C 166.000 316.221 157.437 313.922 152.500 316.521 "/></g>
<g fill="#054D81FE" stroke="#054D81FE">
<path d="M 437.000 317.000 C 437.000 317.550 438.785 318.000 440.966 318.000 L 444.932 318.000 445.216 328.738 C 445.462 338.037 445.735 339.521 447.250 339.811 C 448.831 340.114 449.000 339.080 449.000 329.073 L 449.000 318.000 452.941 318.000 C 455.109 318.000 457.160 317.550 457.500 317.000 C 457.897 316.357 454.344 316.000 447.559 316.000 C 441.186 316.000 437.000 316.396 437.000 317.000 "/></g>
<g fill="#054D81FE" stroke="#054D81FE">
<path d="M 83.866 327.679 C 86.457 334.103 89.012 339.504 89.544 339.681 C 90.316 339.939 94.233 331.310 99.726 317.250 C 99.994 316.563 99.763 316.000 99.212 316.000 C 98.660 316.000 96.641 319.920 94.724 324.710 C 92.807 329.501 90.830 333.557 90.332 333.723 C 89.833 333.889 87.911 329.969 86.060 325.012 C 83.563 318.327 82.237 316.000 80.925 316.000 C 79.401 316.000 79.808 317.617 83.866 327.679 "/></g>
<g fill="#054D81FE" stroke="#054D81FE">
<path d="M 279.500 317.000 C 279.840 317.550 281.891 318.000 284.059 318.000 L 288.000 318.000 288.000 329.000 C 288.000 338.111 288.258 340.000 289.500 340.000 C 290.742 340.000 291.000 338.111 291.000 329.000 L 291.000 318.000 294.941 318.000 C 297.109 318.000 299.160 317.550 299.500 317.000 C 299.897 316.357 296.324 316.000 289.500 316.000 C 282.676 316.000 279.103 316.357 279.500 317.000 "/></g>
<g fill="#054D81FE" stroke="#054D81FE">
<path d="M 244.930 323.373 C 248.070 329.062 249.000 331.822 249.000 335.456 C 249.000 342.130 251.353 340.927 252.002 333.921 C 252.364 330.019 253.537 326.819 256.189 322.500 C 258.215 319.200 259.358 316.500 258.729 316.500 C 258.100 316.500 256.236 318.863 254.588 321.750 C 252.940 324.638 251.330 327.000 251.011 327.000 C 250.691 327.000 249.096 324.527 247.465 321.503 C 245.546 317.946 243.858 316.006 242.680 316.003 C 241.124 316.001 241.450 317.070 244.930 323.373 "/></g>
<g fill="#054D81FE" stroke="#054D81FE">
<path d="M 140.011 258.487 C 138.229 260.634 139.548 263.203 142.235 262.820 C 144.798 262.455 145.873 259.168 143.848 257.885 C 141.974 256.697 141.425 256.783 140.011 258.487 "/></g>
<g fill="#054D81FE" stroke="#054D81FE">
<path d="M 398.152 256.885 C 396.127 258.168 397.202 261.455 399.765 261.820 C 402.452 262.203 403.771 259.634 401.989 257.487 C 400.575 255.783 400.026 255.697 398.152 256.885 "/></g>
<g fill="#054D81FE" stroke="#054D81FE">
<path d="M 389.362 257.500 C 388.484 259.787 389.713 262.000 391.862 262.000 C 394.227 262.000 395.441 259.237 393.895 257.373 C 392.390 255.560 390.081 255.625 389.362 257.500 "/></g>
<g fill="#054D81FE" stroke="#054D81FE">
<path d="M 35.667 256.667 C 34.400 257.933 35.006 260.788 36.678 261.430 C 38.802 262.245 41.471 259.669 40.668 257.578 C 40.060 255.994 36.913 255.420 35.667 256.667 "/></g>
<g fill="#054D81FE" stroke="#054D81FE">
<path d="M 330.994 260.507 C 329.887 261.841 329.931 262.359 331.258 263.687 C 333.403 265.831 336.230 264.640 335.820 261.765 C 335.429 259.026 332.793 258.339 330.994 260.507 "/></g>
<g fill="#054D81FE" stroke="#054D81FE">
<path d="M 305.435 260.424 C 303.018 262.191 304.275 265.242 307.246 264.820 C 308.649 264.621 309.614 263.698 309.803 262.377 C 310.177 259.758 307.799 258.695 305.435 260.424 "/></g>
<g fill="#054D81FE" stroke="#054D81FE">
<path d="M 165.152 258.885 C 163.179 260.135 164.177 263.451 166.633 263.803 C 169.140 264.162 170.561 261.381 168.895 259.373 C 167.577 257.785 167.005 257.710 165.152 258.885 "/></g>
<g fill="#054D81FE" stroke="#054D81FE">
<path d="M 131.362 258.500 C 130.569 260.564 131.644 263.000 133.346 263.000 C 134.121 263.000 135.315 262.325 136.000 261.500 C 136.993 260.303 136.993 259.697 136.000 258.500 C 135.315 257.675 134.121 257.000 133.346 257.000 C 132.571 257.000 131.678 257.675 131.362 258.500 "/></g>
<g fill="#054D81FE" stroke="#054D81FE">
<path d="M 44.667 256.667 C 43.400 257.933 44.006 260.788 45.678 261.430 C 47.845 262.261 50.261 259.845 49.430 257.678 C 48.788 256.006 45.933 255.400 44.667 256.667 "/></g>
<g fill="#054D81FE" stroke="#054D81FE">
<path d="M 477.250 298.662 C 475.468 299.381 475.702 302.948 477.578 303.668 C 478.445 304.001 479.869 303.560 480.742 302.687 C 482.049 301.379 482.102 300.828 481.042 299.550 C 479.696 297.928 479.299 297.835 477.250 298.662 "/></g>
<g fill="#054D81FE" stroke="#054D81FE">
<path d="M 417.667 298.667 C 416.491 299.842 416.954 302.768 418.403 303.324 C 420.528 304.140 423.222 301.741 422.447 299.724 C 421.791 298.014 418.948 297.386 417.667 298.667 "/></g>
<g fill="#054D81FE" stroke="#054D81FE">
<path d="M 156.056 259.895 C 154.848 262.152 157.064 264.573 159.487 263.643 C 161.480 262.879 161.432 259.380 159.418 258.607 C 157.219 257.763 157.192 257.773 156.056 259.895 "/></g>
</svg>
